<svg xmlns="http://www.w3.org/2000/svg" viewBox="0 0 28.69 51.77"><defs><style>.cls-1{fill:#6b4b00;}.cls-1,.cls-2,.cls-3,.cls-4,.cls-6,.cls-7{stroke:#000;stroke-miterlimit:10;}.cls-1,.cls-4{stroke-width:0.5px;}.cls-2{fill:#fff;}.cls-2,.cls-3,.cls-6{stroke-width:0.25px;}.cls-3{fill:#798199;}.cls-4,.cls-6,.cls-7{fill:none;}.cls-5{fill:#999;}.cls-7{stroke-width:0.75px;}</style></defs><title>alcho</title><g id="Слой_2" data-name="Слой 2"><g id="alcho"><path id="right_foot" class="cls-1" d="M8.09,47.3a15.89,15.89,0,0,0,5.27.94.73.73,0,0,1,.73.63l.29,2.4H1.23A4,4,0,0,1,3.4,46.35c3.34-1.63,5.59,2,5.59,2"/><path id="left_foot" class="cls-1" d="M17.87,51s-1.06-4.78,4.06-5,6.16,3.17,6,5.58Z"/><path id="right_arm" class="cls-2" d="M7.5,32.45A3.43,3.43,0,0,0,4.38,29c-1.72,0-2.7.63-2.7,2.35s2,4.58,3.76,4.58S7.5,34.17,7.5,32.45Z"/><g id="Body"><g id="Слой_13" data-name="Слой 13"><path class="cls-3" d="M17.13,44.3c-5.62,0-10.73-5.83-10.87-11.45a16.86,16.86,0,0,1,3.19-9.67,8.77,8.77,0,0,1,6.22-4,12.82,12.82,0,0,1,4.76.46,10.52,10.52,0,0,1,2.27.95,11.7,11.7,0,0,1,5.19,7.24,18,18,0,0,1,.64,3.74C28.85,36.05,26.6,44.3,17.13,44.3Z"/><path class="cls-2" d="M27.89,27.85a3.81,3.81,0,0,1-3.66,1.29c-2.16-.55-3.33-3.36-2.59-6.24a6.6,6.6,0,0,1,1.06-2.29A11.7,11.7,0,0,1,27.89,27.85Z"/><path class="cls-2" d="M20.43,19.66a27,27,0,0,0-1.89,4.65c-1,3.37-3.62,5.47-6.12,4.83-1.94-.5-3.07-3-3-6a8.77,8.77,0,0,1,6.22-4A12.82,12.82,0,0,1,20.43,19.66Z"/></g></g><g id="left_arm"><path class="cls-4" d="M24.26,32s3.4-5.39,0-6.72"/><path id="left_arm-2" data-name="left_arm" class="cls-2" d="M24.49,32.87c0-2.38-4.06-2.83-5.39-2.48-2.58.67-4.61,1.59-4.61,4s2.34,4,5,4S24.49,35.25,24.49,32.87Z"/></g><g id="Head"><path class="cls-2" d="M26.6,11.51A10.53,10.53,0,0,1,23,19.33a14.26,14.26,0,0,1-9.6,3.55c-5.35,0-10-2.74-12.06-6.68A10,10,0,0,1,.13,11.51C.13,5.22,6.05.13,13.36.13S26.6,5.22,26.6,11.51Z"/><g id="Слой_16" data-name="Слой 16"><path class="cls-5" d="M23,19.33a14.26,14.26,0,0,1-9.6,3.55c-5.35,0-10-2.74-12.06-6.68,1-.63,3.09-1.35,7.4-1.35C13.17,14.85,18.92,17.28,23,19.33Z"/></g><g id="Слой_11" data-name="Слой 11"><path class="cls-6" d="M7,17.49s.55-1.4,7.93,1.27"/></g><g id="ayes"><line class="cls-7" x1="18.08" y1="9.49" x2="10.91" y2="9.16"/><line class="cls-7" x1="3.11" y1="8.89" x2="8.16" y2="9.16"/><path class="cls-6" d="M12,9.38a4.92,4.92,0,0,0,3.54,2.74c2.49.36,2.29-2.46,2.29-2.46"/><path class="cls-6" d="M4.21,9A2.64,2.64,0,0,0,7.06,11.5c1.44,0,.84-2.34.84-2.34"/></g></g></g></g></svg>